<svg width="30" height="30" viewBox="0 0 30 30" fill="none" xmlns="http://www.w3.org/2000/svg" class="w-[30px] h-[30px]"><path d="M25.2632 0H4.73684C2.12368 0 0 2.12368 0 4.73684V25.2632C0 27.8763 2.12368 30 4.73684 30H25.2632C27.8763 30 30 27.8763 30 25.2632V4.73684C30 2.12368 27.8763 0 25.2632 0ZM15 26.5105C13.4289 26.5105 12.1579 25.2395 12.1579 23.6684C12.1579 22.0974 13.4289 20.8263 15 20.8263C16.5711 20.8263 17.8421 22.0974 17.8421 23.6684C17.8421 25.2395 16.5711 26.5105 15 26.5105ZM16.9737 16.4763V18.4026H13.0263V13.0263L14.8895 12.9158C15.4974 12.8684 17.5342 12.5132 17.5342 10.0658C17.5342 8.22632 16.0737 7.57895 14.8263 7.57895C14.1711 7.57895 12.0395 7.8 12.0395 10.65H8.09211C8.09211 6.03947 11.4789 3.63158 14.8263 3.63158C18.6789 3.63158 21.4816 6.33947 21.4816 10.0658C21.4816 13.7921 19.2 15.7026 16.9816 16.4763H16.9737Z" fill="#EBE8E2"></path></svg>