<svg class="size-4" width="16" height="16" viewBox="0 0 16 16" fill="none" xmlns="http://www.w3.org/2000/svg"><path d="M9.97454 0H2V11.79H9.97454L13.3429 16V3.36834C13.3429 1.50835 11.8345 0 9.97454 0Z" fill="#E2DCD1"></path><path d="M7.35594 4.20696L6.47129 2.26902C6.44265 2.20378 6.38856 2.15446 6.32014 2.13059L4.35833 1.41301C4.3265 1.40187 4.29468 1.39551 4.26445 1.39551C4.08307 1.39551 3.94146 1.58644 4.0242 1.76941L5.22865 4.40903C5.25729 4.47427 5.31139 4.52359 5.37981 4.54746L5.75371 4.68429L5.83168 4.63974C6.29627 4.37244 6.81974 4.22447 7.35435 4.20537L7.35594 4.20696Z" fill="black"></path><path d="M10.1708 7.37949C9.91143 7.37949 9.6664 7.27926 9.48024 7.09628L8.10077 5.74226L7.99257 5.63566C7.94325 5.58634 7.8987 5.53224 7.86051 5.47496C7.76982 5.33813 7.71572 5.17902 7.7014 5.01513C7.7014 5.00559 7.69981 4.99445 7.69981 4.9849C7.69822 4.9674 7.69345 4.9499 7.68708 4.9324C7.61389 4.92603 7.5407 4.92285 7.46751 4.92285C7.21453 4.92285 6.96155 4.96104 6.71652 5.03582C6.55104 5.08673 6.38875 5.15515 6.23283 5.24107C6.2201 5.24743 6.20737 5.2538 6.19623 5.26175L5.8271 5.47496L4.56855 6.19891C4.3808 6.3071 4.26465 6.50758 4.26465 6.72237V8.53781C4.26465 8.7542 4.3808 8.95308 4.56855 9.06128L6.19623 9.99843C6.58923 10.2244 7.02837 10.3373 7.46751 10.3373C7.90665 10.3373 8.34579 10.2244 8.73879 9.99843L10.3665 9.06128C10.5542 8.95308 10.6704 8.7526 10.6704 8.53781V7.24266C10.5208 7.33017 10.349 7.3779 10.1724 7.3779H10.1708V7.37949Z" fill="black"></path><path d="M10.4347 3.49756C10.4347 3.42597 10.4061 3.35914 10.3552 3.30982L8.86593 1.85079C8.81184 1.79828 8.7466 1.77441 8.68137 1.77441C8.54453 1.77441 8.41406 1.88102 8.41406 2.04013L8.41724 4.93909V4.94387C8.41724 4.95341 8.41884 4.96455 8.42043 4.9741C8.42838 5.03297 8.45543 5.08706 8.4968 5.12843L8.52862 5.15866L9.98606 6.58746C10.0402 6.63997 10.1054 6.66383 10.1706 6.66383C10.3075 6.66383 10.4379 6.55723 10.4379 6.39812L10.4347 3.49916V3.49756Z" fill="black"></path></svg>