<svg width="20" height="20" viewBox="0 0 20 20" fill="none" xmlns="http://www.w3.org/2000/svg"><path d="M2.19915 13.3442C2.17651 13.1796 2.09506 13.0288 1.96986 12.9197C1.84466 12.8105 1.68417 12.7504 1.51807 12.7504C1.35196 12.7504 1.19148 12.8105 1.06628 12.9197C0.941074 13.0288 0.859624 13.1796 0.836983 13.3442L0.830566 13.4377V16.6478L0.83515 16.8082C0.874244 17.4215 1.13598 17.9993 1.57115 18.4331C2.00632 18.867 2.58497 19.1269 3.19832 19.1641L3.3514 19.1687H6.55973L6.65323 19.1632C6.81848 19.1413 6.97014 19.0601 7.08 18.9347C7.18985 18.8093 7.25042 18.6483 7.25042 18.4816C7.25042 18.3149 7.18985 18.1539 7.08 18.0285C6.97014 17.9032 6.81848 17.822 6.65323 17.8001L6.55973 17.7937H3.3514L3.23407 17.7882C2.97208 17.7611 2.72742 17.6446 2.54126 17.4583C2.35511 17.2719 2.23882 17.0272 2.21198 16.7652L2.20557 16.6478V13.4377L2.19915 13.3442ZM19.1575 13.3442C19.1337 13.1716 19.0454 13.0145 18.9103 12.9046C18.7751 12.7946 18.6033 12.7401 18.4295 12.752C18.2558 12.7638 18.093 12.8412 17.974 12.9685C17.8551 13.0958 17.789 13.2635 17.7889 13.4377V16.6478L17.7834 16.7652C17.7544 17.0473 17.6217 17.3087 17.411 17.4987C17.2004 17.6887 16.9267 17.7938 16.6431 17.7937H13.4347L13.3412 17.8001C13.1687 17.8238 13.0116 17.9122 12.9016 18.0473C12.7917 18.1824 12.7372 18.3542 12.749 18.528C12.7609 18.7018 12.8383 18.8646 12.9656 18.9835C13.0929 19.1024 13.2605 19.1686 13.4347 19.1687H16.6431L16.7971 19.1641C17.4378 19.1249 18.0394 18.8427 18.4792 18.3751C18.9191 17.9075 19.1639 17.2898 19.1639 16.6478V13.4377L19.1575 13.3442ZM7.24723 1.521C7.24723 1.33866 7.1748 1.16379 7.04587 1.03486C6.91694 0.905929 6.74207 0.833496 6.55973 0.833496H3.3514L3.19832 0.83808C2.55742 0.877071 1.95556 1.15915 1.51555 1.62676C1.07554 2.09436 0.830549 2.71225 0.830566 3.35433V6.5645L0.836983 6.658C0.860726 6.83056 0.949086 6.98768 1.08421 7.0976C1.21933 7.20752 1.39114 7.26206 1.56493 7.25019C1.73871 7.23831 1.90151 7.16092 2.02042 7.03364C2.13934 6.90636 2.20551 6.73868 2.20557 6.5645V3.35433L2.21198 3.237C2.24101 2.95497 2.37357 2.69373 2.58402 2.50376C2.79448 2.31379 3.06789 2.20859 3.3514 2.2085H6.55973L6.65323 2.20208C6.81782 2.17949 6.96867 2.09806 7.07786 1.97285C7.18706 1.84764 7.24723 1.68713 7.24723 1.521ZM16.7971 0.83808L16.6431 0.833496H13.4347L13.3412 0.839913C13.1767 0.862554 13.0259 0.944004 12.9167 1.06921C12.8076 1.19441 12.7474 1.35489 12.7474 1.521C12.7474 1.6871 12.8076 1.84759 12.9167 1.97279C13.0259 2.09799 13.1767 2.17944 13.3412 2.20208L13.4347 2.2085H16.6431L16.7604 2.214C17.0226 2.24087 17.2674 2.35729 17.4538 2.54363C17.6401 2.72997 17.7565 2.97484 17.7834 3.237L17.7889 3.35433V6.5645L17.7953 6.658C17.818 6.82255 17.8994 6.97334 18.0246 7.08249C18.1498 7.19165 18.3103 7.25178 18.4764 7.25178C18.6425 7.25178 18.803 7.19165 18.9282 7.08249C19.0534 6.97334 19.1348 6.82255 19.1575 6.658L19.1639 6.5645V3.35433L19.1593 3.19483C19.1205 2.58159 18.859 2.00365 18.4239 1.56966C17.9889 1.13567 17.4104 0.875506 16.7971 0.83808ZM6.79165 11.3752C6.79165 10.9538 6.87464 10.5366 7.03587 10.1474C7.1971 9.75813 7.43343 9.40445 7.73135 9.10653C8.02927 8.80861 8.38295 8.57228 8.77221 8.41105C9.16146 8.24981 9.57866 8.16683 9.99998 8.16683C10.4213 8.16683 10.8385 8.24981 11.2278 8.41105C11.617 8.57228 11.9707 8.80861 12.2686 9.10653C12.5665 9.40445 12.8029 9.75813 12.9641 10.1474C13.1253 10.5366 13.2083 10.9538 13.2083 11.3752C13.2083 12.2261 12.8703 13.0421 12.2686 13.6438C11.6669 14.2455 10.8509 14.5835 9.99998 14.5835C9.14908 14.5835 8.33303 14.2455 7.73135 13.6438C7.12967 13.0421 6.79165 12.2261 6.79165 11.3752ZM4.69248 9.76458L4.68515 9.78383V9.78566C4.6206 9.95577 4.49125 10.0934 4.32544 10.1683C4.15963 10.2432 3.97089 10.2493 3.80057 10.1853C3.2524 9.98 3.39907 9.29708 3.4009 9.2925L3.4064 9.27875C3.4303 9.2165 3.45691 9.15533 3.48615 9.09541C3.54115 8.97716 3.62182 8.81491 3.73365 8.62241C4.03304 8.11161 4.39654 7.64121 4.81532 7.22266C5.84382 6.196 7.50207 5.18766 9.99998 5.18766C12.4988 5.18766 14.1571 6.196 15.1837 7.22266C15.6025 7.64121 15.966 8.11161 16.2654 8.62241C16.3886 8.834 16.4982 9.05323 16.5936 9.27875L16.5991 9.2925L16.6009 9.29708V9.29891L16.6018 9.30075C16.6657 9.47142 16.6591 9.66046 16.5837 9.82633C16.5082 9.99219 16.37 10.1213 16.1994 10.1853C16.0287 10.2472 15.8406 10.2399 15.6753 10.1649C15.51 10.0898 15.3806 9.95305 15.3148 9.78383L15.3075 9.7655C15.3075 9.7655 15.2864 9.71508 15.2672 9.67383C15.2098 9.55151 15.1468 9.43191 15.0783 9.31541C14.8385 8.90635 14.5474 8.52961 14.2121 8.19433C13.4054 7.38766 12.0854 6.56266 9.99998 6.56266C7.91548 6.56266 6.59457 7.38766 5.7879 8.19433C5.45258 8.5296 5.16147 8.90634 4.92165 9.31541C4.83671 9.46062 4.76019 9.61059 4.69248 9.76458Z" fill="currentColor"/></svg>