<svg width="20" height="20" viewBox="0 0 15 20" fill="none" xmlns="http://www.w3.org/2000/svg"><path d="M3.75 6.75C3.75 6.55109 3.82902 6.36032 3.96967 6.21967C4.11032 6.07902 4.30109 6 4.5 6H10.5C10.6989 6 10.8897 6.07902 11.0303 6.21967C11.171 6.36032 11.25 6.55109 11.25 6.75C11.25 6.94891 11.171 7.13968 11.0303 7.28033C10.8897 7.42098 10.6989 7.5 10.5 7.5H4.5C4.30109 7.5 4.11032 7.42098 3.96967 7.28033C3.82902 7.13968 3.75 6.94891 3.75 6.75ZM4.5 9.75C4.30109 9.75 4.11032 9.82902 3.96967 9.96967C3.82902 10.1103 3.75 10.3011 3.75 10.5C3.75 10.6989 3.82902 10.8897 3.96967 11.0303C4.11032 11.171 4.30109 11.25 4.5 11.25H10.5C10.6989 11.25 10.8897 11.171 11.0303 11.0303C11.171 10.8897 11.25 10.6989 11.25 10.5C11.25 10.3011 11.171 10.1103 11.0303 9.96967C10.8897 9.82902 10.6989 9.75 10.5 9.75H4.5ZM3.75 14.25C3.75 14.0511 3.82902 13.8603 3.96967 13.7197C4.11032 13.579 4.30109 13.5 4.5 13.5H6.75C6.94891 13.5 7.13968 13.579 7.28033 13.7197C7.42098 13.8603 7.5 14.0511 7.5 14.25C7.5 14.4489 7.42098 14.6397 7.28033 14.7803C7.13968 14.921 6.94891 15 6.75 15H4.5C4.30109 15 4.11032 14.921 3.96967 14.7803C3.82902 14.6397 3.75 14.4489 3.75 14.25ZM4.5 0.75C4.5 0.551088 4.42098 0.360322 4.28033 0.21967C4.13968 0.0790176 3.94891 0 3.75 0C3.55109 0 3.36032 0.0790176 3.21967 0.21967C3.07902 0.360322 3 0.551088 3 0.75V1.5H2.25C1.65326 1.5 1.08097 1.73705 0.65901 2.15901C0.237053 2.58097 0 3.15326 0 3.75V17.25C0 17.8467 0.237053 18.419 0.65901 18.841C1.08097 19.2629 1.65326 19.5 2.25 19.5H9.1665C9.72933 19.5001 10.2718 19.2892 10.6868 18.909L14.2703 15.624C14.5003 15.4132 14.6839 15.1568 14.8096 14.8712C14.9352 14.5856 15 14.277 15 13.965V3.75C15 3.15326 14.7629 2.58097 14.341 2.15901C13.919 1.73705 13.3467 1.5 12.75 1.5H12V0.75C12 0.551088 11.921 0.360322 11.7803 0.21967C11.6397 0.0790176 11.4489 0 11.25 0C11.0511 0 10.8603 0.0790176 10.7197 0.21967C10.579 0.360322 10.5 0.551088 10.5 0.75V1.5H8.25V0.75C8.25 0.551088 8.17098 0.360322 8.03033 0.21967C7.88968 0.0790176 7.69891 0 7.5 0C7.30109 0 7.11032 0.0790176 6.96967 0.21967C6.82902 0.360322 6.75 0.551088 6.75 0.75V1.5H4.5V0.75ZM2.25 3H12.75C12.9489 3 13.1397 3.07902 13.2803 3.21967C13.421 3.36032 13.5 3.55109 13.5 3.75V13.5H10.5C10.0027 13.5 9.52581 13.6975 9.17418 14.0492C8.82254 14.4008 8.625 14.8777 8.625 15.375V18H2.25C2.05109 18 1.86032 17.921 1.71967 17.7803C1.57902 17.6397 1.5 17.4489 1.5 17.25V3.75C1.5 3.55109 1.57902 3.36032 1.71967 3.21967C1.86032 3.07902 2.05109 3 2.25 3ZM10.125 17.3888V15.375C10.125 15.2755 10.1645 15.1802 10.2348 15.1098C10.3052 15.0395 10.4005 15 10.5 15H12.7313L10.125 17.3888Z" fill="currentColor"/></svg>