<svg width="30" height="45" viewBox="0 0 30 45" fill="none" xmlns="http://www.w3.org/2000/svg" class="w-[30px] h-[30px]"><path d="M15.471 8.07177C20.1185 6.13416 22.0379 12.0939 27.2364 8.61357V1.54267C21.6647 5.28014 19.8697 -1.84586 14.4313 1.54267V8.12687L0 16.0702V28.5682C0 31.0935 1.98163 33.1505 4.43424 33.1505H4.96742V44.6752H10.3791V41.5162H19.6209V44.6752H25.0326V33.1505H25.5658C28.0095 33.1505 30 31.1027 30 28.5682V16.0702L15.4799 8.07177H15.471ZM19.6209 36.5023H10.3791V33.1505H19.6209V36.5023ZM15.1155 28.5498C12.0853 28.5498 9.62382 26.0153 9.62382 22.8748C9.62382 19.7342 12.0764 17.1997 15.1155 17.1997C18.1546 17.1997 20.6072 19.7342 20.6072 22.8748C20.6072 26.0153 18.1546 28.5498 15.1155 28.5498Z" fill="#EBE8E2"></path></svg>