<svg class="absolute w-[15.85%] h-auto left-[79.52%] top-[7.8vw] md:w-[12.5%] md:left-[80.41%] md:top-[4.27vw]" width="300" height="300" viewBox="0 0 300 300" fill="none" xmlns="http://www.w3.org/2000/svg"><path d="M127.93 264.75C116.01 264.75 104.26 261.6 93.9398 255.64L55.5398 233.47C49.7698 230.14 45.8198 224.41 44.7098 217.89C33.9698 210.02 26.0498 195.09 26.0498 182.34C26.0498 174.45 28.9998 168.41 34.3498 165.32C36.6498 163.99 39.2298 163.32 42.0198 163.32C43.2198 163.32 44.4398 163.45 45.6798 163.7C47.4498 158.74 50.9398 154.48 55.5498 151.82L93.9498 129.65C100.17 126.06 106.87 123.49 113.91 122.01L125.64 79.29C126.64 75.63 129.12 72.47 132.43 70.62L192.31 37.09C194.46 35.89 196.87 35.25 199.28 35.25C203.7 35.25 207.95 37.37 210.65 40.91C213.35 44.46 214.22 48.97 213.03 53.31L200.33 99.57L252.06 66.88C254.36 65.42 256.99 64.65 259.67 64.65C263.95 64.65 268.12 66.66 270.82 70.02C273.52 73.37 274.54 77.73 273.61 81.98L263.11 130.12C262.3 133.83 260 137.11 256.79 139.14L212.31 167.25L229.34 174.4C232.27 175.69 234.5 177.99 235.69 180.89C236.91 183.87 236.89 187.14 235.64 190.11C234.39 193.07 232.07 195.38 229.09 196.59C227.63 197.19 226.1 197.49 224.54 197.49C222.98 197.49 221.37 197.17 219.87 196.54L211.48 193.01V214.15C211.48 222.1 207.2 229.51 200.32 233.48L161.92 255.65C151.6 261.61 139.85 264.76 127.93 264.76V264.75ZM42.0398 174.32C41.1998 174.32 40.4598 174.5 39.8498 174.85C38.0698 175.88 37.0498 178.61 37.0498 182.35C37.0498 188.71 39.9498 196.17 44.3798 202.13V174.71C43.5398 174.46 42.7398 174.33 42.0298 174.33L42.0398 174.32ZM159.54 128.34C160.34 128.76 161.14 129.2 161.92 129.65L181.53 140.97L187.73 112.55L159.55 128.34H159.54Z" fill="#EBE8E2"></path><path d="M199.27 39.25C202.45 39.25 205.51 40.78 207.46 43.34C209.4 45.88 210.02 49.13 209.17 52.25L196.13 99.76C195.41 102.39 193.63 104.67 191.25 106L150.68 128.72C153.87 129.93 156.96 131.4 159.93 133.11L184.28 147.17L191.64 113.41C192.22 110.74 193.88 108.38 196.19 106.92L254.2 70.26C255.86 69.21 257.76 68.65 259.67 68.65C262.75 68.65 265.75 70.1 267.71 72.52C269.65 74.93 270.38 78.06 269.71 81.12L259.21 129.26C258.63 131.93 256.97 134.29 254.66 135.75L206.74 166.04C207.07 167.17 207.29 168.33 207.4 169.52L227.8 178.08C229.72 178.93 231.2 180.45 231.99 182.4C232.8 184.39 232.79 186.58 231.96 188.56C231.13 190.54 229.57 192.08 227.59 192.89C226.61 193.29 225.58 193.49 224.55 193.49C223.52 193.49 222.44 193.28 221.43 192.86L207.48 187V214.16C207.48 220.68 203.97 226.76 198.32 230.03L159.92 252.2C150.21 257.81 139.15 260.77 127.93 260.77C116.71 260.77 105.65 257.81 95.94 252.2L57.54 230.03C52.32 227.02 48.93 221.6 48.45 215.64C38.19 208.95 30.05 194.39 30.05 182.36C30.05 175.96 32.29 171.15 36.35 168.8C38.05 167.82 39.96 167.33 42.02 167.33C44.08 167.33 46.27 167.82 48.54 168.78C49.28 163.18 52.59 158.15 57.54 155.29L95.94 133.12C102.5 129.33 109.68 126.76 117.1 125.48L129.48 80.35C130.2 77.72 131.98 75.44 134.36 74.11L194.24 40.58C195.79 39.71 197.53 39.25 199.26 39.25M48.39 211.91V172C46.13 170.89 43.98 170.32 42.04 170.32C40.5 170.32 39.08 170.67 37.85 171.39C34.76 173.18 33.05 177.07 33.05 182.35C33.05 192.81 39.71 205.32 48.38 211.91M199.27 31.25C196.17 31.25 193.09 32.06 190.34 33.6L130.46 67.13C126.22 69.5 123.06 73.55 121.77 78.23L110.68 118.65C104.1 120.27 97.82 122.8 91.94 126.19L53.54 148.36C49.07 150.94 45.48 154.81 43.19 159.36C42.8 159.34 42.4 159.33 42.01 159.33C38.51 159.33 35.26 160.18 32.34 161.87C25.79 165.65 22.04 173.12 22.04 182.36C22.04 195.77 30.04 211.37 41.08 220.17C42.73 227.19 47.2 233.29 53.54 236.95L91.94 259.12C102.87 265.43 115.31 268.76 127.93 268.76C140.55 268.76 152.99 265.43 163.92 259.12L202.32 236.95C210.44 232.26 215.48 223.53 215.48 214.16V199.04L218.33 200.24C220.31 201.07 222.4 201.5 224.54 201.5C226.68 201.5 228.66 201.1 230.6 200.31C234.57 198.69 237.67 195.62 239.33 191.67C240.99 187.72 241.01 183.36 239.39 179.39C237.81 175.52 234.84 172.46 231.02 170.78L230.95 170.75L230.88 170.72L220.93 166.54L258.93 142.53C263.03 139.94 265.98 135.73 267.02 130.98L277.52 82.84C278.71 77.4 277.4 71.82 273.93 67.52C270.47 63.23 265.14 60.66 259.66 60.66C256.23 60.66 252.86 61.64 249.91 63.5L206.91 90.68L216.87 54.38C218.39 48.83 217.28 43.05 213.81 38.5C210.35 33.97 204.91 31.26 199.26 31.26L199.27 31.25ZM167.69 128.36L181.92 120.39L178.78 134.77L167.68 128.36H167.69Z" fill="#EBE8E2"></path><path d="M126.34 138.82C123.78 138.82 121.32 137.59 119.74 135.52C118.18 133.48 117.68 130.86 118.37 128.35L131.41 80.84C131.99 78.72 133.43 76.89 135.34 75.81L195.22 42.28C196.49 41.57 197.85 41.21 199.26 41.21C201.82 41.21 204.28 42.44 205.86 44.51C207.42 46.55 207.92 49.17 207.23 51.68L194.19 99.19C193.61 101.31 192.18 103.14 190.26 104.22L130.38 137.75C129.11 138.46 127.75 138.82 126.34 138.82Z" fill="#EBE8E2"></path><path d="M199.27 43.2C203.12 43.2 206.47 46.89 205.31 51.14L192.27 98.65C191.83 100.27 190.75 101.64 189.29 102.46L129.41 135.99C128.4 136.55 127.36 136.81 126.35 136.81C122.5 136.81 119.15 133.12 120.31 128.87L133.35 81.36C133.79 79.74 134.87 78.37 136.33 77.55L196.21 44.02C197.22 43.46 198.26 43.2 199.27 43.2ZM199.27 39.2C197.54 39.2 195.8 39.66 194.25 40.53L134.37 74.06C131.99 75.39 130.21 77.67 129.49 80.3L116.45 127.81C115.59 130.93 116.22 134.18 118.16 136.72C120.11 139.28 123.17 140.81 126.35 140.81C128.08 140.81 129.82 140.35 131.37 139.48L191.25 105.95C193.63 104.62 195.41 102.34 196.13 99.71L209.17 52.2C210.03 49.08 209.4 45.83 207.46 43.29C205.51 40.73 202.45 39.2 199.27 39.2Z" fill="black"></path><path d="M127.93 258.71C117.07 258.71 106.35 255.84 96.9399 250.41L58.5399 228.24C53.5099 225.33 50.3799 219.92 50.3799 214.11V171.11C50.3799 165.3 53.5099 159.88 58.5399 156.98L96.9399 134.81C106.35 129.38 117.06 126.51 127.93 126.51C138.8 126.51 149.51 129.38 158.92 134.81L197.32 156.98C202.35 159.89 205.48 165.3 205.48 171.11V214.11C205.48 219.92 202.35 225.34 197.32 228.24L158.92 250.41C149.51 255.84 138.8 258.71 127.93 258.71ZM78.8299 228.24V223.74C78.8299 221.82 80.1499 220.42 81.9599 220.42C82.0299 220.42 82.0999 220.42 82.1699 220.42L82.1299 220.39C80.2499 219.26 78.8299 216.93 78.8299 214.95V208.06L78.7099 207.99V212.49C78.7099 214.41 77.3899 215.81 75.5799 215.81C75.5099 215.81 75.4399 215.81 75.3699 215.81L75.4099 215.84C77.2899 216.97 78.7099 219.3 78.7099 221.28V228.17L78.8299 228.24Z" fill="#EBE8E2"></path><path d="M127.93 128.5C138.28 128.5 148.64 131.18 157.92 136.54L196.32 158.71C200.75 161.27 203.48 166 203.48 171.11V214.11C203.48 219.23 200.75 223.95 196.32 226.51L157.92 248.68C148.64 254.04 138.29 256.72 127.93 256.72C117.57 256.72 107.22 254.04 97.9399 248.68L59.5399 226.51C55.1099 223.95 52.3799 219.23 52.3799 214.11V171.11C52.3799 165.99 55.1099 161.27 59.5399 158.71L97.9399 136.54C107.22 131.18 117.57 128.5 127.93 128.5ZM75.5799 213.82C75.2299 213.82 74.8199 213.7 74.3899 213.43L66.9999 209.01C66.8799 208.94 66.7699 208.9 66.6699 208.9C66.4799 208.9 66.3599 209.03 66.3599 209.26V212.11C66.3599 212.46 66.6499 212.92 66.9999 213.13L74.3899 217.55C75.6799 218.32 76.7199 219.99 76.7199 221.27V228.66C76.7199 229.01 77.0099 229.47 77.3599 229.68L80.2099 231.38C80.3299 231.45 80.4399 231.49 80.5399 231.49C80.7299 231.49 80.8499 231.36 80.8499 231.13V223.74C80.8499 222.89 81.2999 222.42 81.9799 222.42C82.3299 222.42 82.7399 222.54 83.1699 222.81L90.5599 227.23C90.6799 227.3 90.7899 227.34 90.8899 227.34C91.0799 227.34 91.1999 227.21 91.1999 226.98V224.13C91.1999 223.78 90.9099 223.32 90.5599 223.11L83.1699 218.69C81.8799 217.92 80.8399 216.25 80.8399 214.97V207.58C80.8399 207.23 80.5499 206.77 80.1999 206.56L77.3499 204.86C77.2299 204.79 77.1199 204.75 77.0199 204.75C76.8299 204.75 76.7099 204.88 76.7099 205.11V212.5C76.7099 213.35 76.2599 213.82 75.5799 213.82ZM127.93 124.5C116.72 124.5 105.65 127.46 95.9399 133.07L57.5399 155.24C51.8899 158.5 48.3799 164.58 48.3799 171.11V214.11C48.3799 220.63 51.8899 226.71 57.5399 229.97L95.9399 252.14C105.65 257.75 116.71 260.71 127.93 260.71C139.15 260.71 150.21 257.75 159.92 252.14L198.32 229.97C203.97 226.71 207.48 220.63 207.48 214.1V171.1C207.48 164.58 203.97 158.5 198.32 155.23L159.92 133.06C150.21 127.45 139.15 124.49 127.93 124.49V124.5Z" fill="black"></path><path d="M118.23 227.56C121.859 227.56 124.8 224.619 124.8 220.99C124.8 217.361 121.859 214.42 118.23 214.42C114.602 214.42 111.66 217.361 111.66 220.99C111.66 224.619 114.602 227.56 118.23 227.56Z" fill="black"></path><path d="M55.2004 191.47C55.2004 188.64 53.4104 186.23 50.9004 185.3V197.64C53.4104 196.71 55.2004 194.3 55.2004 191.47Z" fill="black"></path><path d="M191.17 171.97C188.69 171.97 186.27 170.8 184.69 168.84C183.13 166.91 182.55 164.38 183.09 161.92L193.59 113.78C194.06 111.63 195.39 109.73 197.25 108.55L255.26 71.89C256.6 71.04 258.13 70.59 259.66 70.59C262.14 70.59 264.56 71.76 266.14 73.72C267.7 75.65 268.28 78.17 267.75 80.64L257.25 128.78C256.78 130.93 255.45 132.83 253.59 134.01L195.58 170.67C194.24 171.52 192.71 171.97 191.17 171.97Z" fill="#EBE8E2"></path><path d="M259.66 72.6C263.38 72.6 266.7 76.03 265.79 80.22L255.29 128.36C254.93 130 253.93 131.43 252.51 132.32L194.5 168.98C193.42 169.66 192.27 169.97 191.16 169.97C187.44 169.97 184.12 166.54 185.03 162.35L195.53 114.21C195.89 112.57 196.89 111.14 198.31 110.25L256.32 73.59C257.4 72.91 258.55 72.6 259.66 72.6ZM259.66 68.6C257.74 68.6 255.85 69.16 254.19 70.21L196.18 106.87C193.87 108.33 192.22 110.69 191.63 113.36L181.13 161.5C180.46 164.56 181.19 167.69 183.13 170.1C185.08 172.53 188.09 173.97 191.17 173.97C193.09 173.97 194.98 173.41 196.64 172.36L254.65 135.7C256.96 134.24 258.61 131.88 259.2 129.21L269.7 81.07C270.37 78.01 269.64 74.88 267.7 72.47C265.75 70.04 262.74 68.6 259.66 68.6Z" fill="black"></path><path d="M222.16 190.93L146.18 159.04L135.34 146.93L150.86 147.9L226.84 179.79L226.89 179.82C229.97 181.11 231.41 184.66 230.12 187.73C228.83 190.81 225.28 192.25 222.21 190.96L222.17 190.93H222.16Z" fill="#EBE8E2"></path><path d="M224.54 193.44C223.48 193.44 222.43 193.23 221.42 192.81L221.14 192.68L144.98 160.71L130.58 144.63L151.31 145.93L227.79 178.04C229.7 178.89 231.19 180.41 231.98 182.35C232.79 184.34 232.78 186.52 231.95 188.51C231.12 190.49 229.56 192.03 227.57 192.84C226.59 193.24 225.56 193.44 224.53 193.44H224.54ZM223.19 189.2C224.12 189.53 225.14 189.51 226.06 189.13C227.06 188.72 227.84 187.95 228.26 186.95C229.12 184.89 228.15 182.52 226.1 181.66L225.92 181.58L150.38 149.87L140.07 149.22L147.36 157.36L223.19 189.2Z" fill="black"></path><path d="M129.67 234.24L128.17 231.64L185.17 198.73C195.51 192.76 200.08 199.69 203.41 204.75C203.9 205.5 204.38 206.22 204.87 206.9L202.44 208.66C201.93 207.95 201.43 207.19 200.91 206.41C197.51 201.24 194.57 196.78 186.68 201.34L129.68 234.25L129.67 234.24Z" fill="black"></path><path d="M51.2401 170.07C62.0901 176.34 70.9301 191.63 70.9301 204.17C70.9301 210.57 68.6901 215.38 64.6301 217.73C62.9301 218.71 61.0101 219.2 58.9501 219.2C56.5701 219.2 53.9901 218.55 51.3301 217.25L51.2401 213.81C55.8101 216.45 60.0301 216.92 63.1301 215.14C66.2201 213.35 67.9301 209.46 67.9301 204.18C67.9301 193.13 60.5101 179.77 51.1201 173.53L51.2501 170.08L51.2401 170.07Z" fill="black"></path><path d="M119.06 253.9C116.2 253.9 113.07 252.96 109.85 251.1C99.0002 244.83 90.1602 229.54 90.1602 217C90.1602 210.6 92.4002 205.79 96.4602 203.44C100.52 201.1 105.81 201.57 111.35 204.77C122.21 211.04 131.04 226.33 131.04 238.87C131.04 245.27 128.8 250.08 124.74 252.43C123.04 253.41 121.12 253.9 119.06 253.9ZM102.15 204.98C100.61 204.98 99.1902 205.33 97.9602 206.05C94.8702 207.84 93.1602 211.73 93.1602 217.01C93.1602 228.59 101.32 242.72 111.35 248.51C115.92 251.15 120.14 251.62 123.24 249.84C126.33 248.05 128.04 244.16 128.04 238.88C128.04 227.3 119.88 213.17 109.85 207.38C107.1 205.79 104.48 204.99 102.15 204.99V204.98Z" fill="black"></path><path d="M93.1697 217.01H90.1697C90.1697 210.41 85.5197 202.35 79.7997 199.05C77.3097 197.61 75.0497 197.34 73.4397 198.27C71.8197 199.2 70.9297 201.3 70.9297 204.17H67.9297C67.9297 200.18 69.3497 197.16 71.9397 195.67C74.5197 194.18 77.8497 194.46 81.2997 196.45C87.9597 200.29 93.1697 209.32 93.1697 217.01Z" fill="black"></path><path d="M50.2598 214.67V213.18C40.6898 207.06 33.0498 193.5 33.0498 182.3C33.0498 177.02 34.7498 173.13 37.8498 171.34C39.0798 170.63 40.4998 170.27 42.0398 170.27C44.3698 170.27 46.9898 171.07 49.7398 172.66C49.9198 172.76 50.0798 172.88 50.2598 172.99V172.1C50.2598 171.27 50.3298 170.44 50.4398 169.63C45.1898 166.83 40.2098 166.51 36.3498 168.74C32.2898 171.08 30.0498 175.9 30.0498 182.3C30.0498 194.83 38.8798 210.13 49.7398 216.4C49.9598 216.53 50.1698 216.64 50.3898 216.75C50.2998 216.06 50.2598 215.36 50.2598 214.66V214.67Z" fill="black"></path></svg>