<?xml version="1.0" encoding="UTF-8" standalone="no" ?>
<!DOCTYPE svg PUBLIC "-//W3C//DTD SVG 1.1//EN" "http://www.w3.org/Graphics/SVG/1.1/DTD/svg11.dtd">
<svg xmlns="http://www.w3.org/2000/svg" xmlns:xlink="http://www.w3.org/1999/xlink" version="1.1" width="1080" height="1080" viewBox="0 0 1080 1080" xml:space="preserve">
<desc>Created with Fabric.js 5.2.4</desc>
<defs>
</defs>
<g transform="matrix(1 0 0 1 540 540)" id="976e7e85-f1d8-4928-b33d-81d749938415"  >
<rect style="stroke: none; stroke-width: 1; stroke-dasharray: none; stroke-linecap: butt; stroke-dashoffset: 0; stroke-linejoin: miter; stroke-miterlimit: 4; fill: rgb(255,255,255); fill-rule: nonzero; opacity: 1; visibility: hidden;" vector-effect="non-scaling-stroke"  x="-540" y="-540" rx="0" ry="0" width="1080" height="1080" />
</g>
<g transform="matrix(1 0 0 1 540 540)" id="c0235cfc-fc2d-4721-bb2b-86a38eb2e5a5"  >
</g>
<g transform="matrix(10.66 0 0 10.66 540 540)"  >
<g style="" vector-effect="non-scaling-stroke"   >
		<g transform="matrix(1 0 0 1 -1.66 -2.83)"  >
<path style="stroke: none; stroke-width: 1; stroke-dasharray: none; stroke-linecap: butt; stroke-dashoffset: 0; stroke-linejoin: miter; stroke-miterlimit: 4; fill: rgb(0,0,0); fill-rule: nonzero; opacity: 1;" vector-effect="non-scaling-stroke"  transform=" translate(-5.68, -3.04)" d="M 7.35594 4.20696 L 6.47129 2.26902 C 6.44265 2.20378 6.38856 2.15446 6.32014 2.13059 L 4.35833 1.41301 C 4.3265 1.40187 4.29468 1.39551 4.26445 1.39551 C 4.08307 1.39551 3.94146 1.58644 4.0242 1.76941 L 5.22865 4.40903 C 5.25729 4.47427 5.31139 4.52359 5.37981 4.54746 L 5.75371 4.68429 L 5.83168 4.63974 C 6.29627 4.37244 6.81974 4.22447 7.35435 4.20537 L 7.35594 4.20696 Z" stroke-linecap="round" />
</g>
		<g transform="matrix(1 0 0 1 0.13 1.76)"  >
<path style="stroke: none; stroke-width: 1; stroke-dasharray: none; stroke-linecap: butt; stroke-dashoffset: 0; stroke-linejoin: miter; stroke-miterlimit: 4; fill: rgb(0,0,0); fill-rule: nonzero; opacity: 1;" vector-effect="non-scaling-stroke"  transform=" translate(-7.47, -7.63)" d="M 10.1708 7.37949 C 9.91143 7.37949 9.6664 7.27926 9.48024 7.09628 L 8.10077 5.74226 L 7.99257 5.63566 C 7.94325 5.58634 7.8987 5.53224 7.86051 5.47496 C 7.76982 5.33813 7.71572 5.17902 7.7014 5.01513 C 7.7014 5.00559 7.69981 4.99445 7.69981 4.9849 C 7.69822 4.9674 7.69345 4.9499 7.68708 4.9324 C 7.61389 4.92603 7.5407 4.92285 7.46751 4.92285 C 7.21453 4.92285 6.96155 4.96104 6.71652 5.03582 C 6.55104 5.08673 6.38875 5.15515 6.23283 5.24107 C 6.2201 5.24743 6.20737 5.2538 6.19623 5.26175 L 5.8271 5.47496 L 4.56855 6.19891 C 4.3808 6.3071 4.26465 6.50758 4.26465 6.72237 L 4.26465 8.53781 C 4.26465 8.7542 4.3808 8.95308 4.56855 9.06128 L 6.19623 9.99843 C 6.58923 10.2244 7.02837 10.3373 7.46751 10.3373 C 7.90665 10.3373 8.34579 10.2244 8.73879 9.99843 L 10.3665 9.06128 C 10.5542 8.95308 10.6704 8.7526 10.6704 8.53781 L 10.6704 7.24266 C 10.5208 7.33017 10.349 7.3779 10.1724 7.3779 L 10.1708 7.3779 L 10.1708 7.37949 Z" stroke-linecap="round" />
</g>
		<g transform="matrix(1 0 0 1 2.09 -1.65)"  >
<path style="stroke: none; stroke-width: 1; stroke-dasharray: none; stroke-linecap: butt; stroke-dashoffset: 0; stroke-linejoin: miter; stroke-miterlimit: 4; fill: rgb(0,0,0); fill-rule: nonzero; opacity: 1;" vector-effect="non-scaling-stroke"  transform=" translate(-9.43, -4.22)" d="M 10.4347 3.49756 C 10.4347 3.42597 10.4061 3.35914 10.3552 3.30982 L 8.86593 1.85079 C 8.81184 1.79828 8.7466 1.77441 8.68137 1.77441 C 8.54453 1.77441 8.41406 1.88102 8.41406 2.04013 L 8.41724 4.93909 L 8.41724 4.94387 C 8.41724 4.95341 8.41884 4.96455 8.42043 4.9741 C 8.42838 5.03297 8.45543 5.08706 8.4968 5.12843 L 8.52862 5.15866 L 9.98606 6.58746 C 10.0402 6.63997 10.1054 6.66383 10.1706 6.66383 C 10.3075 6.66383 10.4379 6.55723 10.4379 6.39812 L 10.4347 3.49916 L 10.4347 3.49756 Z" stroke-linecap="round" />
</g>
</g>
</g>
</svg>